# xmcd CD database file
#
# Track frame offsets:
#	150
#	33220
#	44921
#	60441
#	70857
#	78094
#	91534
#	102301
#	132904
#	176521
#	195215
#	219819
#	230771
#	247183
#	259449
#	266624
#	282452
#	302015
#	329933
#	340710
#
# Disc length: 4739 seconds
#
# Revision: 4
# Processed by: cddbd v1.5.2PL0 Copyright (c) Steve Scherf et al.
# Submitted via: CDex 1.51
#
DISCID=23128114
DTITLE=Various Artist - Vol.5 - Karajan in the theatre
DYEAR=2008
DGENRE=Classique
TTITLE0=Rossini - Il barbiere di Siviglia - Overture  [Philharmonia Orchestra, 1961]
TTITLE1=Gounod - Faust - Ballet Music - Les Nubiennes  [Berliner Philharmoniker, 1980]
TTITLE2=Bizet - L'Arlésienne Suite N°2 - Farandole  [Berliner Philharmoniker, 1980]
TTITLE3=Bizet - Carmen - Prelude to Act I  [Philharmonia Orchestra, 1959]
TTITLE4=Bizet - Carmen - Entr'acte to Act II
TTITLE5=Bizet - Carmen - Entr'acte to Act III
TTITLE6=Bizet - Carmen - Entr'acte to Act IV
TTITLE7=Massenet - Thaïs - Méditation  [Berliner Philharmoniker, 1981]
TTITLE8=Offenbach - Orphée aux enfers - Overture  [Philharmonia Orchestra, 1961]
TTITLE9=Offenbach - Les Contes d'Hoffmann - Barcarolle  [Philharmonia Orchestra, 1959]
TTITLE10=Puccini - Manon Lescaut - Intermezzo  [Berliner Philharmoniker, 1981]
TTITLE11=Borodin - Prince Igor - Dance of the Polovtsian Maidens (Act II)  [Philharmonia Orchestra, 1961] 
TTITLE12=Borodin - Prince Igor - Polovtsian Dances (Act II) (opening)
TTITLE13=Tchaikovsky - Swan Lake - Scene (Act II)  [Philharmonia Orchestra, 1959]
TTITLE14=Tchaikovsky - Swan Lake - Dance of the Little Swans (Act II)
TTITLE15=Tchaikovsky - Swan Lake - Hungarian Dance (Czardas) (Act III)
TTITLE16=Tchaikovsky - Sleeping Beauty - Valse (Act I)  [Philharmonia Orchestra, 1959]
TTITLE17=Tchaikovsky - Sleeping Beauty - Rose Adagio (Act I)
TTITLE18=Weinberger - Schwanda the Bagpiper - Polka  [Philharmonia Orchestra, 1961]
TTITLE19=Wagner - Lohengrin - Prelude to Act III  [Berliner Philharmoniker, 1975]
EXTD=YEAR: 2008
EXTT0=
EXTT1=
EXTT2=
EXTT3=
EXTT4=
EXTT5=
EXTT6=
EXTT7=
EXTT8=
EXTT9=
EXTT10=
EXTT11=
EXTT12=
EXTT13=
EXTT14=
EXTT15=
EXTT16=
EXTT17=
EXTT18=
EXTT19=
PLAYORDER=
